<svg width="162" height="33" viewBox="0 0 162 33" fill="none" xmlns="http://www.w3.org/2000/svg">
<g clip-path="url(#clip0)">
<path fill-rule="evenodd" clip-rule="evenodd" d="M126.43 7.47709V16.3921C126.432 19.3461 126.432 22.3017 126.43 25.2573C126.43 25.5076 126.435 25.5143 126.687 25.5143H128.449C128.738 25.5143 129.026 25.5144 129.314 25.5146L129.323 25.5146H129.323H129.324H129.324H129.324H129.325H129.325H129.325H129.326C129.907 25.515 130.487 25.5154 131.067 25.5143C131.244 25.5143 131.274 25.4877 131.274 25.3386V25.3308V25.323V25.3152V25.3075V25.2998V25.292V25.2844V25.2767V25.269C131.272 24.1567 131.271 23.0444 131.272 21.932C131.272 21.8976 131.287 21.8632 131.301 21.8288L131.301 21.8287L131.31 21.806L131.314 21.7967L131.319 21.7828C131.333 21.792 131.347 21.8005 131.362 21.809C131.395 21.8284 131.429 21.8481 131.453 21.8757C131.555 21.9962 131.655 22.1185 131.755 22.2408C131.827 22.3287 131.899 22.4166 131.972 22.5039C132.268 22.863 132.565 23.2217 132.861 23.5803L132.862 23.5809C133.363 24.1872 133.864 24.7934 134.364 25.4015C134.43 25.4811 134.5 25.5159 134.599 25.5159C135.472 25.5151 136.344 25.5151 137.217 25.5151H137.223H137.229C138.101 25.5151 138.974 25.5151 139.846 25.5143C139.872 25.5143 139.9 25.5031 139.927 25.4918C139.939 25.4869 139.951 25.4819 139.964 25.4778C139.959 25.466 139.955 25.4536 139.951 25.4412L139.951 25.4411L139.951 25.4411L139.951 25.441L139.951 25.4409L139.951 25.4409C139.943 25.4132 139.934 25.3856 139.917 25.3651C139.682 25.081 139.446 24.799 139.209 24.5168L139.206 24.5128C139.067 24.3467 138.927 24.1806 138.788 24.0141L136.411 21.1546L136.411 21.1543L136.411 21.154L136.41 21.1537C135.766 20.3798 135.121 19.606 134.473 18.8355C134.396 18.741 134.4 18.6747 134.478 18.5852C134.673 18.3561 134.864 18.1233 135.054 17.8911L135.054 17.8908L135.14 17.7862L135.508 17.3356C136.288 16.3805 137.068 15.4263 137.85 14.4708C138.014 14.2695 138.18 14.0697 138.345 13.8698L138.345 13.8697L138.345 13.8696L138.346 13.8691C138.481 13.7054 138.617 13.5416 138.752 13.3768C138.775 13.3502 138.795 13.3005 138.785 13.274C138.775 13.2491 138.725 13.2276 138.691 13.2243C138.642 13.2185 138.593 13.2199 138.544 13.2213C138.523 13.222 138.501 13.2226 138.48 13.2226L137.559 13.2227C136.332 13.223 135.105 13.2233 133.877 13.2193C133.734 13.2176 133.64 13.2624 133.552 13.3718C133.15 13.8749 132.747 14.3758 132.343 14.877L132.342 14.8782L132.34 14.8806L132.339 14.8818C132.145 15.1221 131.952 15.3624 131.758 15.603C131.715 15.6564 131.674 15.7103 131.632 15.7641L131.632 15.7642L131.632 15.7642C131.564 15.8524 131.495 15.9403 131.423 16.0257C131.408 16.0458 131.381 16.0568 131.354 16.068L131.337 16.075C131.33 16.0782 131.322 16.0816 131.316 16.0854C131.31 16.0713 131.304 16.0575 131.299 16.0437L131.299 16.0436C131.289 16.02 131.279 15.9967 131.271 15.9727C131.266 15.961 131.267 15.9476 131.268 15.9349V15.9348V15.9347V15.9347V15.9346V15.9345V15.9344L131.269 15.9285C131.269 15.9255 131.269 15.9225 131.269 15.9196L131.269 15.8859C131.271 13.0791 131.272 10.2706 131.272 7.46383C131.272 7.27983 131.233 7.2417 131.049 7.2417H126.669C126.464 7.2417 126.43 7.27485 126.43 7.47709ZM103.178 25.4813C103.783 25.652 104.401 25.7531 104.988 25.7283C105.598 25.7399 106.15 25.6636 106.699 25.531C107.312 25.3818 107.894 25.1514 108.421 24.8116C109.613 24.0441 110.583 23.066 111.191 21.7631C111.438 21.2343 111.602 20.6823 111.685 20.1088C111.815 19.2119 111.806 18.3185 111.612 17.4299C111.503 16.9343 111.337 16.4602 111.118 16.0077C110.846 15.4457 110.493 14.9368 110.069 14.476C109.597 13.9621 109.083 13.5029 108.483 13.1482C108.05 12.8929 107.592 12.6873 107.107 12.5431C106.634 12.4006 106.152 12.311 105.665 12.2696C104.894 12.2066 104.128 12.2563 103.37 12.4403C102.981 12.5348 102.603 12.6525 102.241 12.8183C101.512 13.1565 100.859 13.6107 100.294 14.1826C99.6074 14.8788 99.0819 15.6811 98.7438 16.6061C98.5432 17.1548 98.4156 17.7184 98.3691 18.2919C98.2746 19.4457 98.4056 20.5712 98.8648 21.6487C99.1051 22.214 99.4284 22.7279 99.8196 23.1953C100.304 23.7722 100.856 24.2761 101.486 24.6906C102.011 25.037 102.573 25.3105 103.178 25.4813ZM104.081 17.2725C104.423 17.0719 104.791 17.0072 105.187 17.0039C105.269 17.0216 105.351 17.0371 105.433 17.0526L105.433 17.0527C105.612 17.0867 105.791 17.1206 105.963 17.1763C106.341 17.3006 106.621 17.5543 106.779 17.9256C107.035 18.5257 107.035 19.144 106.86 19.754C106.691 20.3359 106.28 20.679 105.681 20.8066C105.212 20.9061 104.746 20.9061 104.287 20.7867C103.781 20.6558 103.423 20.3475 103.251 19.8386C103.112 19.4308 103.075 19.0097 103.158 18.5953C103.271 18.03 103.568 17.5725 104.081 17.2725ZM54.7276 19.1736C54.7376 19.598 54.648 20.2229 54.474 20.8313C54.2469 21.6253 53.8689 22.3448 53.3551 22.9979C52.8826 23.598 52.3439 24.1268 51.7222 24.5677C51.3012 24.8678 50.8503 25.1147 50.3663 25.3054C49.4081 25.6817 48.4152 25.7944 47.399 25.7082C46.8172 25.6585 46.2519 25.5275 45.7049 25.317C44.4019 24.8164 43.3858 23.9544 42.5371 22.8686C42.1873 22.421 41.9121 21.9287 41.7082 21.3999C41.5259 20.9258 41.3982 20.4351 41.3402 19.9262C41.2839 19.4289 41.2474 18.9316 41.2905 18.431C41.3502 17.7431 41.4894 17.0767 41.753 16.4318C42.1939 15.351 42.9017 14.4741 43.7787 13.7265C44.2461 13.3287 44.7683 13.0104 45.3369 12.7667C46.4193 12.3059 47.5482 12.1832 48.7069 12.2744C49.2291 12.3158 49.7479 12.4219 50.2453 12.5976C51.0492 12.8828 51.767 13.3171 52.4052 13.8856C53.0103 14.4227 53.5291 15.0311 53.9137 15.7406C54.111 16.1036 54.2601 16.4932 54.4044 16.8827C54.653 17.5541 54.7243 18.2536 54.7276 19.1736ZM46.0215 18.9996C46.0232 19.0209 46.0249 19.0467 46.0268 19.076C46.0324 19.1608 46.0399 19.2741 46.0546 19.3875C46.1442 20.092 46.5337 20.5793 47.2084 20.7667C47.8085 20.9324 48.4185 20.9374 49.0136 20.7004C49.4728 20.518 49.7529 20.1732 49.8839 19.714C50.0181 19.2449 50.0281 18.7675 49.9137 18.2851C49.7446 17.564 49.2506 17.1695 48.5959 17.07C48.0886 16.9938 47.5747 16.9905 47.0774 17.1695C46.736 17.2922 46.4674 17.5044 46.2784 17.8143C46.0712 18.1591 46.0265 18.5404 46.0215 18.9996ZM60.631 25.4829C61.2277 25.6486 61.8378 25.7514 62.4246 25.7282C63.3131 25.7498 64.1353 25.584 64.9177 25.2624C65.6206 24.974 66.2455 24.5562 66.8091 24.049C67.5584 23.3743 68.1784 22.6002 68.6027 21.6785C68.9077 21.0154 69.0752 20.3142 69.1431 19.5915C69.2443 18.5289 69.1 17.4945 68.7155 16.4983C68.4734 15.8684 68.1253 15.2981 67.696 14.7776C67.1688 14.1377 66.5688 13.5758 65.8477 13.1597C65.5277 12.9757 65.1912 12.8149 64.8481 12.6757C64.5862 12.5696 64.3094 12.4933 64.0325 12.4353C63.6827 12.3607 63.328 12.2977 62.9716 12.2679C62.4329 12.2231 61.8974 12.253 61.3603 12.3342C60.7686 12.4237 60.1967 12.5762 59.6513 12.8215C58.9202 13.1481 58.2804 13.6123 57.7184 14.1808C57.0156 14.892 56.4536 15.6943 56.1055 16.6425C55.8983 17.2111 55.7756 17.7962 55.7292 18.3947C55.6596 19.2848 55.7491 20.1617 56.016 21.0171C56.1851 21.5558 56.4188 22.0631 56.7321 22.5289C57.314 23.3925 58.0433 24.1103 58.912 24.6872C59.4457 25.0403 60.0176 25.3105 60.631 25.4829ZM62.6533 20.8733C62.6257 20.8753 62.5981 20.8773 62.5704 20.8795C62.0334 20.8646 61.5029 20.8198 61.0553 20.4684C60.7818 20.2529 60.6227 19.9628 60.5381 19.6363C60.4204 19.1787 60.4171 18.7129 60.5365 18.2571C60.6774 17.7233 61.0073 17.3503 61.5394 17.1663C62.0599 16.984 62.5953 16.9906 63.1225 17.0867C63.6629 17.1846 64.0756 17.4829 64.2729 18.0283C64.4503 18.5173 64.4453 19.0146 64.3674 19.5169C64.3044 19.928 64.122 20.2745 63.7872 20.5264C63.5021 20.7419 63.1672 20.8215 62.8191 20.8596C62.7638 20.8651 62.7086 20.8692 62.6533 20.8733ZM145.402 25.7264C144.787 25.7496 144.187 25.6485 143.599 25.4844C142.981 25.312 142.405 25.0368 141.87 24.6804C140.998 24.0986 140.269 23.3758 139.683 22.5089C139.373 22.0514 139.141 21.5524 138.971 21.0236C138.601 19.8781 138.561 18.7161 138.798 17.5441C138.946 16.8148 139.229 16.1335 139.619 15.4953C140.05 14.7907 140.559 14.1542 141.195 13.627C141.688 13.2193 142.231 12.901 142.826 12.6639C143.824 12.2661 144.862 12.1782 145.923 12.223C146.482 12.2462 147.03 12.3307 147.566 12.4866C148.343 12.7137 149.048 13.085 149.673 13.6022C150.337 14.1509 150.865 14.8139 151.274 15.5649C151.499 15.9776 151.705 16.4053 151.877 16.8429C152.055 17.2955 152.159 17.7729 152.157 18.2669C152.157 18.4177 152.121 18.4525 151.972 18.484C151.697 18.5427 151.423 18.6032 151.148 18.6637L151.147 18.664C150.964 18.7042 150.782 18.7444 150.599 18.7841C150.398 18.828 150.197 18.8711 149.996 18.9142C149.795 18.9573 149.594 19.0004 149.392 19.0443C149.108 19.1066 148.822 19.1705 148.537 19.2343L148.162 19.3179C147.937 19.3682 147.711 19.418 147.486 19.4679C147.31 19.5067 147.134 19.5456 146.957 19.5847L145.649 19.8732L145.29 19.9522C145.016 20.0126 144.742 20.073 144.469 20.1318C144.371 20.1533 144.272 20.1732 144.173 20.1931C144.075 20.213 143.976 20.2329 143.877 20.2544C143.848 20.2611 143.798 20.2975 143.799 20.3075C143.814 20.3506 143.834 20.3987 143.867 20.4252C143.969 20.5056 144.071 20.5839 144.174 20.6622C144.277 20.7405 144.38 20.8189 144.481 20.8993C144.845 21.1877 145.271 21.2175 145.702 21.1711C146.284 21.1081 146.745 20.8214 147.097 20.3506C147.271 20.1164 147.279 20.1214 147.512 20.2736L147.531 20.2859C147.908 20.5341 148.287 20.7773 148.668 21.021L148.998 21.2325C149.194 21.3588 149.39 21.4848 149.587 21.6108L149.588 21.6119L149.588 21.612C150.043 21.9039 150.497 22.1957 150.951 22.4906C151.165 22.6299 151.161 22.6365 150.981 22.8288C150.863 22.955 150.746 23.0823 150.629 23.2098L150.629 23.2099C150.328 23.5378 150.026 23.8662 149.707 24.1765C149.457 24.4218 149.17 24.6423 148.867 24.8197C148.499 25.0352 148.111 25.2291 147.71 25.3717C147.085 25.5938 146.434 25.7132 145.767 25.7264C145.689 25.7275 145.609 25.7272 145.527 25.7268H145.527H145.526C145.485 25.7266 145.444 25.7264 145.402 25.7264ZM145.51 16.6755C145.444 16.686 145.377 16.6942 145.31 16.7024C145.154 16.7215 144.998 16.7406 144.852 16.7882C144.405 16.9325 144.03 17.201 143.751 17.5823C143.642 17.7302 143.556 17.8934 143.47 18.0569L143.47 18.0569L143.47 18.057L143.47 18.0571L143.443 18.1078L143.41 18.1707C143.392 18.2056 143.405 18.2619 143.417 18.305C143.42 18.3166 143.471 18.3249 143.498 18.3183C143.872 18.2344 144.246 18.1493 144.62 18.0641L144.829 18.0166C144.962 17.9858 145.096 17.9551 145.229 17.9245C145.527 17.8562 145.824 17.788 146.12 17.7182C146.389 17.6552 146.657 17.5922 146.924 17.5259C147.04 17.4961 147.055 17.4447 146.974 17.3618C146.571 16.9573 146.105 16.6871 145.51 16.6755ZM32.7997 15.16C32.8006 15.8878 32.8015 16.6156 32.8015 17.3433C32.8009 18.2342 32.8007 19.1254 32.8006 20.0168C32.8002 21.7992 32.7998 23.5824 32.7965 25.3648C32.7965 25.4643 32.8114 25.5157 32.9291 25.5157C34.4409 25.5124 35.9544 25.5124 37.4662 25.5157C37.5839 25.5157 37.627 25.4693 37.627 25.3516C37.6237 23.3055 37.622 21.2595 37.6204 19.2134V19.2134L37.6203 19.2099C37.6203 19.0491 37.6402 19.0259 37.801 19.0259C38.5105 19.0242 39.22 19.0242 39.9311 19.0259C40.1665 19.0259 40.1815 19.0126 40.1815 18.7723V15.0242C40.1815 14.7507 40.1798 14.7474 39.9013 14.7474L39.3717 14.7485H39.3715C38.843 14.7494 38.3137 14.7503 37.7845 14.754C37.6734 14.7557 37.6203 14.7126 37.622 14.6015C37.6237 14.4921 37.6237 14.3827 37.6237 14.2733C37.6247 14.0988 37.6243 13.924 37.624 13.749C37.6231 13.3407 37.6223 12.9318 37.6386 12.5245C37.6535 12.1449 37.7994 11.8034 38.1906 11.6608C38.3829 11.5912 38.6 11.5647 38.8056 11.563C39.5832 11.557 40.3617 11.558 41.1398 11.559H41.1399H41.1401H41.1403H41.1404C41.432 11.5593 41.7235 11.5597 42.0148 11.5597C42.2419 11.5597 42.2652 11.5382 42.2652 11.3144C42.2652 10.9058 42.265 10.497 42.2648 10.0882V10.088V10.0878V10.0876V10.0874V10.086C42.2644 9.26817 42.2641 8.45005 42.2652 7.63267C42.2653 7.60649 42.2656 7.58217 42.2659 7.55958C42.2695 7.30036 42.2699 7.26944 41.9253 7.28622C41.9044 7.28732 41.8842 7.28695 41.8638 7.28659C41.8534 7.2864 41.8431 7.28622 41.8325 7.28622C41.2458 7.28622 40.6589 7.28659 40.072 7.28696C38.5066 7.28794 36.9408 7.28893 35.3759 7.2829C34.8023 7.28124 34.2768 7.40888 33.8044 7.74042C33.1761 8.1797 32.8147 8.78807 32.8081 9.54563C32.795 11.4171 32.7973 13.2885 32.7997 15.16ZM71.9082 20.3376V17.2344C71.9082 17.062 71.8751 17.0272 71.701 17.0255H71.7001C71.1783 17.0255 70.658 17.0255 70.1362 17.0272C69.9837 17.0272 69.9522 17.0007 69.9522 16.8449C69.9505 15.5336 69.9505 14.2241 69.9522 12.9128C69.9522 12.767 69.9853 12.7388 70.1329 12.7388C70.6498 12.7404 71.1666 12.7404 71.6835 12.7404H71.6844C71.8751 12.7404 71.9099 12.7073 71.9099 12.52C71.9099 11.8728 71.9095 11.2256 71.9091 10.5784L71.9091 10.5606C71.9086 9.90748 71.9082 9.25435 71.9082 8.60123C71.9082 8.42717 71.9314 8.40894 72.1072 8.40894C73.5543 8.41059 74.9998 8.41059 76.4469 8.40894C76.6459 8.40894 76.6707 8.4222 76.6724 8.61946C76.679 9.35215 76.684 10.0832 76.689 10.8159C76.6906 11.0033 76.6921 11.1909 76.6936 11.3785L76.6936 11.38C76.6965 11.7529 76.6995 12.126 76.7039 12.4984C76.7055 12.7106 76.737 12.7388 76.9509 12.7388C77.415 12.7371 77.8792 12.7371 78.345 12.7371C78.4925 12.7371 78.5306 12.7753 78.5306 12.9261V16.8316C78.5306 16.9907 78.4925 17.0255 78.3367 17.0255C78.1023 17.0255 77.8684 17.0251 77.6343 17.0247L77.6333 17.0247C77.399 17.0243 77.1646 17.0239 76.9293 17.0239C76.7404 17.0239 76.7089 17.0554 76.7089 17.2444L76.7087 17.8063V17.8083C76.7085 18.5585 76.7082 19.3088 76.7122 20.0591C76.7138 20.3028 76.7205 20.5481 76.8415 20.7752C76.9774 21.0288 77.183 21.1813 77.4631 21.2294C77.5874 21.251 77.7151 21.2576 77.8427 21.2592C78.1785 21.2617 78.5143 21.2614 78.8494 21.2611L79.1838 21.2609C79.3993 21.2609 79.4225 21.2824 79.4225 21.5029V25.1846V25.3023C79.4258 25.4863 79.4042 25.5095 79.2236 25.5095H78.1709C77.791 25.5095 77.4111 25.5091 77.0312 25.5086C76.1447 25.5076 75.2581 25.5065 74.3715 25.5112C73.7433 25.5145 73.1863 25.3255 72.7089 24.9293C72.1817 24.4934 71.9115 23.9198 71.9115 23.2286C71.9066 22.2671 71.9066 21.3023 71.9082 20.3376ZM117.844 25.4846C118.457 25.6553 119.084 25.7581 119.727 25.7266C119.727 25.7382 119.729 25.7498 119.73 25.7581C119.865 25.7427 120 25.7284 120.135 25.7141C120.379 25.6883 120.622 25.6624 120.864 25.6304C121.638 25.5277 122.354 25.2591 123.027 24.8679C123.939 24.3375 124.649 23.5981 125.249 22.7428C125.303 22.6649 125.298 22.6002 125.209 22.5455C125.027 22.4295 124.846 22.3119 124.665 22.1944L124.548 22.1183L124.393 22.0184L123.568 21.4874L123.568 21.4872L123.567 21.487C122.838 21.0181 122.109 20.5494 121.381 20.0789C121.317 20.0391 121.269 20.0391 121.221 20.0955L121.207 20.1114C121.198 20.1229 121.188 20.1344 121.179 20.146C121.165 20.163 121.152 20.18 121.138 20.1966C120.922 20.4651 120.66 20.679 120.329 20.7784C119.778 20.9442 119.231 20.8994 118.693 20.7038C118.189 20.5198 117.882 20.1485 117.756 19.6479C117.62 19.1058 117.617 18.5555 117.832 18.0217C118.005 17.594 118.32 17.3238 118.749 17.1614C119.035 17.0521 119.33 17.041 119.626 17.0298L119.654 17.0288C119.995 17.0138 120.335 17.0619 120.617 17.2708C120.806 17.41 120.98 17.5725 121.134 17.7482L121.164 17.7828C121.29 17.9267 121.292 17.93 121.477 17.8112C121.639 17.7077 121.8 17.6036 121.962 17.4994L121.962 17.4991C122.175 17.3614 122.389 17.2235 122.603 17.0868L122.603 17.0865C123.47 16.5346 124.337 15.9827 125.207 15.4341C125.303 15.3727 125.308 15.3147 125.249 15.2302C124.75 14.5224 124.176 13.8908 123.467 13.3885C122.986 13.0487 122.467 12.7719 121.907 12.5961C121.511 12.4735 121.101 12.3856 120.692 12.321C119.576 12.1452 118.479 12.2547 117.41 12.6011C116.831 12.7901 116.292 13.0752 115.8 13.4416C114.969 14.0582 114.281 14.7992 113.761 15.6943C113.29 16.5033 113.032 17.3802 112.947 18.3052C112.864 19.2152 112.95 20.1137 113.221 20.9939C113.408 21.6023 113.68 22.1676 114.048 22.6831C114.615 23.4788 115.308 24.1485 116.125 24.6889C116.657 25.042 117.23 25.3138 117.844 25.4846ZM88.387 15.4356V7.4804C88.387 7.27154 88.4152 7.2417 88.6191 7.2417H92.9191C93.1081 7.2417 93.1445 7.27983 93.1445 7.47875C93.1445 8.86684 93.1443 10.2547 93.1442 11.6426C93.1438 14.4181 93.1434 17.1933 93.1445 19.9693C93.1445 20.1451 93.1594 20.3208 93.1843 20.4932C93.239 20.8711 93.5573 21.1828 93.9369 21.2325C94.0977 21.2524 94.2601 21.2623 94.4209 21.2623C95.1309 21.2634 95.8402 21.2631 96.5497 21.2627H96.5513C96.9064 21.2625 97.2616 21.2623 97.6169 21.2623C97.7711 21.2623 97.8009 21.2938 97.8009 21.4762V24.7501C97.8009 24.7994 97.8007 24.8488 97.8005 24.8981C97.7999 25.046 97.7993 25.1939 97.8043 25.3419C97.8092 25.4662 97.7628 25.5159 97.6368 25.5143C97.2565 25.5118 96.8753 25.5121 96.4938 25.5124H96.4937L96.1118 25.5126C95.4966 25.5121 94.8815 25.5117 94.2663 25.5113H94.266C93.0361 25.5106 91.806 25.5098 90.5751 25.5076C90.1176 25.5076 89.6783 25.4148 89.2788 25.1811C88.9407 24.9838 88.7136 24.6921 88.576 24.3274C88.4235 23.9229 88.387 23.5018 88.387 23.0742C88.3887 20.528 88.3887 17.9818 88.387 15.4356ZM153.5 18.5563C153.5 19.0108 153.5 19.4653 153.5 19.9198C153.499 21.7251 153.499 23.5303 153.499 25.3338C153.499 25.478 153.529 25.5095 153.693 25.5095C154.284 25.5102 154.875 25.5103 155.466 25.5105C156.352 25.5107 157.238 25.5109 158.124 25.5128C158.245 25.5128 158.284 25.4664 158.284 25.3487C158.281 22.8689 158.281 20.3873 158.281 17.9074C158.281 17.8813 158.281 17.8551 158.28 17.8288C158.279 17.7363 158.278 17.643 158.291 17.5527C158.332 17.2294 158.448 16.9344 158.777 16.815C158.994 16.7371 159.236 16.6973 159.466 16.6924C159.98 16.6817 160.494 16.6837 161.008 16.6858C161.213 16.6866 161.418 16.6874 161.623 16.6874C161.84 16.6874 161.865 16.6609 161.865 16.4454V12.646C161.865 12.447 161.837 12.4155 161.64 12.4155C161.256 12.4155 160.872 12.4155 160.489 12.4154C158.956 12.4152 157.424 12.4149 155.892 12.4189C155.538 12.4189 155.186 12.447 154.841 12.5548C154.132 12.7753 153.732 13.2676 153.585 13.9688C153.52 14.2804 153.505 14.6053 153.504 14.9236C153.498 16.1339 153.499 17.345 153.5 18.5563Z" fill="#E71836"/>
<g clip-path="url(#clip1)">
<path d="M15.9093 15.612C15.9093 15.4206 15.917 15.2445 15.917 15.1143V15.0224C15.8174 15.1143 15.7179 15.2062 15.6414 15.2981C15.3045 15.6655 14.6308 16.033 14.2939 16.1173V16.1402C14.2939 16.1862 14.2939 16.2398 14.2939 16.301C14.2939 16.3929 14.2862 16.4924 14.2862 16.5996C14.2709 17.0819 14.2479 17.5489 14.2479 17.5489L14.2403 17.6332L15.8787 17.6791L15.8863 17.6025C15.8863 17.6025 15.9093 17.1202 15.9093 16.5766C15.9093 16.5001 15.9093 16.4235 15.9093 16.3469C15.9093 16.2398 15.9093 16.1326 15.9093 16.0177C15.9093 15.9182 15.9093 15.811 15.9093 15.7115C15.9093 15.6732 15.9093 15.6426 15.9093 15.612ZM13.2067 16.8676C12.977 16.8676 12.7933 17.0513 12.7933 17.281C12.7933 17.5107 12.977 17.6944 13.2067 17.6944C13.4364 17.6944 13.6202 17.5107 13.6202 17.281C13.6278 17.059 13.4364 16.8676 13.2067 16.8676ZM14.2862 18.3452C14.1255 18.3452 13.9723 18.3375 13.8269 18.3375C13.758 18.3375 13.6891 18.3375 13.6278 18.3375C13.6202 18.3375 13.6048 18.3375 13.5972 18.3375H13.513V19.0878H13.5972C13.6661 19.0878 13.7503 19.0878 13.8422 19.0955C13.8805 19.0955 13.9111 19.0955 13.9494 19.0955C14.0565 19.0955 14.179 19.1031 14.3015 19.1031C14.9293 19.1261 15.7332 19.1567 16.3763 19.195L16.4682 19.2027L16.4988 18.8122L16.5218 18.4447L16.4376 18.437C15.9399 18.3988 15.0595 18.3605 14.2862 18.3452ZM18.3286 23.3982C18.3669 23.1608 18.4052 22.9158 18.4435 22.7398C18.4971 22.4412 18.6349 21.5913 18.7344 20.9482C18.7574 20.8028 18.7803 20.6726 18.7957 20.5578C18.811 20.4429 18.8263 20.3511 18.8416 20.2822C18.8722 20.0908 18.8952 19.9223 18.9335 19.7922C18.9871 19.5855 19.0636 19.4706 19.2167 19.4859C19.2856 19.4936 19.3699 19.5242 19.477 19.6008C19.477 19.6008 19.477 19.6008 19.4847 19.6084C19.967 19.9453 20.6255 20.4736 20.7556 20.5348C20.8705 20.5884 21.0159 20.5807 21.1384 20.5654C21.2915 20.6573 21.414 20.7186 21.4523 20.7415C22.1184 21.0784 22.3175 21.2239 22.0189 21.599C21.9653 21.6679 21.9117 21.7292 21.8581 21.7981C21.659 22.0431 21.4829 22.2651 21.3145 22.4565C20.6408 23.2604 20.1738 23.6738 19.4694 24.0643C19.4388 24.0796 19.4081 24.0949 19.3852 24.1102C19.2244 24.1944 18.8033 24.0566 18.6196 23.9877C18.4818 23.9341 18.3363 23.8652 18.2674 23.8346C18.2827 23.6891 18.3057 23.5436 18.3286 23.3982ZM25.9924 20.9406C25.8546 20.2133 24.4765 18.6897 23.6649 18.0619C23.3816 17.8475 23.0984 17.6332 22.8228 17.4264C22.8687 17.3193 22.907 17.1432 22.7692 16.9441C22.6849 16.8293 20.5872 15.1679 19.2933 14.5325C19.1249 14.4482 17.7315 13.9659 16.7209 13.7439C16.6596 13.7286 16.5907 13.7133 16.5218 13.7056C16.384 13.6826 16.2615 13.6597 16.1467 13.652C16.139 13.652 16.1313 13.652 16.1237 13.652H16.116C15.9782 13.629 15.8251 13.5754 15.7103 13.4989C15.6949 13.4912 15.6796 13.4759 15.6567 13.4606C15.5648 13.3994 15.4959 13.3228 15.4423 13.2462C15.427 13.2233 15.4117 13.2003 15.3964 13.1773C15.3887 13.162 15.3734 13.139 15.3657 13.1237C15.3504 13.0931 15.3351 13.0625 15.3275 13.0319C15.2739 12.8941 15.2126 12.8634 15.1667 12.8558C15.1361 12.8558 15.1284 12.8558 15.1284 12.8558C15.1284 12.8558 15.0365 12.8481 15.0289 12.9936C15.0289 13.0472 15.0442 13.1467 15.1054 13.2845C15.1514 13.407 15.2279 13.5601 15.3428 13.7362C15.3504 13.7515 15.3657 13.7668 15.3734 13.7898C15.649 14.2109 15.7562 14.3028 16.3304 14.4482H16.3381C16.3457 14.4482 16.3457 14.4482 16.3534 14.4559C16.5984 14.5171 17.1649 14.6779 17.5783 14.854V14.8617C17.6013 14.9229 17.7697 15.4282 17.6626 17.4341C17.6549 17.5336 17.6549 17.6408 17.6472 17.748C17.609 18.3069 17.5554 18.9653 17.4712 19.7539C17.3946 20.4736 17.3257 21.086 17.2721 21.6296C17.0884 23.3676 16.9735 24.4547 16.8587 26.1467C16.8204 26.6979 16.7821 27.41 16.7821 27.41H17.7315H17.9152C17.9229 27.1956 17.9305 26.9736 17.9458 26.7439C18.3439 26.6673 19.3392 26.3304 19.6149 26.2309C19.967 26.1084 21.3068 25.4194 22.394 24.7074C22.7692 24.4624 23.9099 23.7504 24.6602 23.023C26.0306 21.6909 26.0383 21.1856 25.9924 20.9406ZM14.937 21.7215L14.8451 21.7598L13.9647 21.3617L13.957 21.4765C13.9111 22.0507 13.8651 23.0996 13.8422 24.3016C13.8422 24.4088 13.8345 24.516 13.8345 24.6308C13.8192 25.5495 13.8116 26.6443 13.8116 27.4023H15.2815C15.3045 26.4683 15.3428 25.2433 15.381 24.4088C15.3887 24.1944 15.404 24.003 15.4117 23.8499C15.4653 23.0919 15.5035 22.4029 15.5265 21.9741C15.5342 21.7981 15.5418 21.6602 15.5418 21.5837L15.5495 21.4535L14.9676 21.6985L14.937 21.7215ZM12.1578 23.9953C12.1578 23.8499 12.1502 23.7044 12.1502 23.5666C12.0966 21.6602 12.0507 20.4276 12.0507 18.728V18.7203C12.0507 17.8016 12.066 16.8599 12.0889 16.1326V16.0866L12.043 16.0637C11.9818 16.033 11.8975 15.9718 11.7903 15.9029C11.7061 15.8416 11.6066 15.7727 11.5071 15.6885C11.3846 15.589 11.2468 15.4818 11.109 15.3746C11.0783 15.3517 11.0477 15.321 11.0171 15.2981C10.9099 15.2138 10.8027 15.122 10.6955 15.0378L10.573 14.9306L10.5577 15.0837C10.4888 15.8263 10.4199 17.2886 10.4199 18.5136C10.4199 18.7586 10.4199 18.9959 10.4276 19.2103C10.4658 20.5425 10.5041 21.8134 10.5577 22.9312C10.5807 23.5054 10.6113 24.0336 10.6496 24.5006C10.7032 25.205 10.7338 26.0855 10.7491 26.8128C10.7568 27.0272 10.7568 27.2262 10.7644 27.4023H12.2344C12.2344 27.3946 12.2344 27.3793 12.2344 27.3717C12.2038 26.3228 12.1808 24.96 12.1578 23.9953ZM13.4058 15.1679C13.3981 15.1602 13.3905 15.1526 13.3752 15.1449C13.3445 15.1296 13.3063 15.1067 13.2527 15.1067C13.2297 15.1067 13.2067 15.1143 13.1838 15.122C13.1684 15.1296 13.1531 15.1296 13.1378 15.1449C13.0995 15.1756 13.0383 15.2215 12.9847 15.2751C12.9311 15.3287 12.8852 15.3746 12.8622 15.4206C12.8469 15.4588 12.8469 15.4895 12.8469 15.5201C12.8469 15.6273 12.8928 15.7268 12.9617 15.8034C13.0383 15.8876 13.1455 15.9335 13.268 15.9335C13.4441 15.9335 13.5972 15.8187 13.6584 15.6579C13.6737 15.612 13.6814 15.566 13.6814 15.5201C13.6814 15.5124 13.6814 15.4665 13.6508 15.4129C13.6202 15.3823 13.4823 15.2292 13.4058 15.1679ZM4.22615 19.9989C4.24146 19.9989 4.25677 19.9912 4.2874 19.9759C4.32568 19.9683 4.36396 19.9606 4.39458 19.9529C4.44052 19.9453 4.48645 19.9376 4.53239 19.9223C4.7391 19.884 4.87691 19.8458 4.87691 19.8458C4.87691 19.8458 5.12956 19.8994 5.26737 19.8304C5.33628 19.7998 5.84924 19.4553 6.30094 19.1567C6.3086 19.1491 6.31626 19.1491 6.32391 19.1414L6.33157 19.1337C6.44641 19.0572 6.56125 18.9883 6.65312 18.927C6.70672 18.8964 6.79859 18.8428 6.84452 18.8275C6.90577 18.8122 6.97468 18.8122 7.05124 18.8964C7.05889 18.9041 7.06655 18.9194 7.08186 18.9347C7.1278 19.0189 7.16608 19.1337 7.20436 19.2716C7.21202 19.3098 7.21967 19.3481 7.23498 19.3864C7.24264 19.4094 7.24264 19.4323 7.2503 19.463C7.34217 19.9147 7.41107 20.5195 7.48763 21.0171C7.54123 21.354 7.66372 22.0507 7.74794 22.6632C7.77091 22.8316 7.78622 22.9847 7.80153 23.1302C7.81685 23.2757 7.83216 23.3293 7.8245 23.4058C7.8245 23.4058 7.81685 23.4058 7.81685 23.4135C7.7556 23.4518 7.64076 23.513 7.5106 23.559C7.38811 23.6049 7.18139 23.6661 6.99765 23.6968C6.9364 23.7044 6.87515 23.7121 6.8139 23.7121C6.79859 23.7121 6.78328 23.7121 6.76796 23.7044C6.61484 23.6815 6.25501 23.4441 6.05595 23.2451C5.84923 23.046 5.64252 22.778 5.40518 22.4948C5.35925 22.4335 5.26737 22.3263 5.19847 22.2268C5.19081 22.2191 5.19081 22.2191 5.18316 22.2115C5.14488 22.1579 5.1066 22.112 5.08363 22.0813C4.68551 21.5301 3.73616 20.1367 4.22615 19.9989ZM10.6037 14.165C10.6037 14.165 10.6037 14.1573 10.6113 14.1573C10.7108 13.9582 11.5147 12.7256 11.7291 13.1008C11.775 13.1773 11.7061 13.3687 12.0813 13.6979C12.3033 13.897 12.7856 14.1803 13.1684 14.364C13.1761 14.364 13.1761 14.364 13.1838 14.364C13.2144 14.364 13.2527 14.3334 13.2603 14.2875C13.3063 13.9889 13.3752 13.7668 13.3752 13.5065C13.3752 13.3304 13.0689 12.9783 12.9234 12.7027C12.8469 12.5725 12.801 12.45 12.8699 12.3811C12.9158 12.3352 13.1378 12.3198 13.4517 12.3198C14.179 12.3198 15.3887 12.4194 15.8481 12.45C15.8634 12.45 15.8787 12.45 15.8863 12.45C15.9017 12.45 15.917 12.45 15.9246 12.45C16.1773 12.427 16.361 12.205 16.2385 11.9753C16.1313 11.7686 16.0931 11.7303 16.2998 11.5925C16.3916 11.5313 16.4682 11.4317 16.4223 11.3475C16.3534 11.2327 16.2002 11.248 16.116 11.2939C16.0012 11.3552 15.8328 11.3246 15.8251 11.2097C15.8174 11.1332 15.8481 11.0336 15.9782 10.9571C16.139 10.8575 16.2156 10.8882 16.384 10.781C16.4452 10.7427 16.5831 10.6279 16.4682 10.4518C16.3917 10.3293 16.407 10.2604 16.4759 10.2144C16.5524 10.1608 16.7285 10.1072 16.7974 10.0077C16.8663 9.90819 16.7898 9.80866 16.6673 9.66319C16.6366 9.62491 16.5448 9.5407 16.5218 9.51007C16.4223 9.4182 16.2385 9.45648 16.1467 9.47179C15.9859 9.50242 15.7179 9.5407 15.5189 9.4871C15.2586 9.42586 15.0671 9.18086 15.2509 9.02774C15.2968 8.98946 15.381 8.95118 15.4729 8.90524C15.5648 8.85931 15.8021 8.76743 15.9093 8.69087C16.0471 8.59134 16.0931 8.46119 16.0854 8.35401C16.0778 8.24682 16.0395 8.12432 16.0242 8.07073C15.9553 7.87167 15.9093 7.61902 16.0318 7.36637C16.1543 7.11372 16.2845 6.79982 16.2385 6.50889C16.1849 6.21796 16.0471 5.64376 15.6796 5.64376C15.2968 5.64376 14.9217 5.62079 14.6461 5.61313C14.3169 5.59782 13.0613 5.5672 12.4028 5.64376C11.6219 5.73563 11.2315 6.06484 10.6343 6.56249C10.2285 6.90701 9.60837 7.86402 9.67727 8.76743C9.74618 9.67085 10.0371 10.2068 10.4276 10.9647C10.8487 11.7839 11.553 12.5725 11.2161 12.6797C11.0936 12.718 10.8946 12.672 10.7568 12.8022C10.6419 12.917 10.5501 13.0778 10.4505 13.208C10.351 13.3381 10.2362 13.4989 10.106 13.5908C8.28387 13.7745 7.3192 14.0501 7.03593 14.1343C6.4311 14.3181 3.88162 15.7345 3.65194 15.9565C3.55241 16.0484 3.52944 16.1785 3.52944 16.2933C3.28445 16.4388 3.03946 16.5843 2.77149 16.7451C2.2126 17.0819 0.367486 18.4677 0.0459306 19.1031C-0.122503 19.4323 0.329205 21.5454 2.37338 23.069C3.39164 23.8269 4.21083 24.4088 4.89988 24.8452C5.26737 25.0978 6.08657 25.5955 6.43875 25.7409C6.84452 25.9094 8.00825 26.2922 8.05418 26.5601V26.5678C8.06184 26.6826 8.07715 27.0425 8.09246 27.41H8.52886H9.25619C9.24088 26.9276 9.22556 26.3151 9.19494 25.695C9.17197 25.1974 9.13369 24.7074 9.09541 24.2863C9.0801 24.1638 9.07244 24.0489 9.05713 23.9264C9.03416 23.6891 9.01119 23.4518 8.98823 23.1991C8.98057 23.1532 8.98057 23.1072 8.97291 23.069C8.87338 21.9741 8.77386 20.7645 8.6437 19.2256C8.62073 18.9883 8.60542 18.7433 8.59777 18.4906C8.58245 18.1767 8.5748 17.8628 8.56714 17.5566C8.56714 17.3575 8.55949 17.1661 8.55949 16.9747C8.55949 15.9871 8.59777 15.1756 8.6437 14.9535C8.65901 14.8693 8.67433 14.8004 8.69729 14.7468L8.71261 14.7085L8.75089 14.7009C8.78917 14.6932 8.8351 14.6856 8.87338 14.6703H8.86573C9.21791 14.5937 9.6543 14.5018 10.0065 14.4559C10.3357 14.4023 10.4888 14.3028 10.6037 14.165Z" fill="white"/>
<path d="M7.96994 24.4162C7.95463 24.3014 7.93932 24.1942 7.93166 24.11C7.91635 24.0028 7.90104 23.9415 7.88572 23.9262C7.8551 23.8956 7.81682 23.9109 7.69432 23.9569C7.58714 23.9951 7.1584 24.11 6.94403 24.1483C6.92106 24.1559 6.90575 24.1559 6.89043 24.1559C6.69903 24.1865 6.61482 24.1712 6.44638 24.1023C6.37748 24.0717 6.15545 23.9262 5.93343 23.7731C5.78031 23.6659 5.62718 23.5587 5.51234 23.4745C4.61658 22.7702 3.42989 21.6524 2.40398 20.1135C2.31976 19.991 2.2432 19.8532 2.2432 19.746C2.2432 19.6771 2.26617 19.6082 2.3657 19.524C2.38867 19.501 2.70257 19.2867 3.00881 19.0723C3.32271 18.8579 3.64426 18.6359 3.73614 18.567L3.80504 18.5134L3.32271 17.6789L3.14662 17.3726L3.0624 17.4033C3.00881 17.4186 2.97819 17.4415 2.97819 17.4415C2.97819 17.4415 2.53413 17.7019 2.03649 18.0311C1.53885 18.3603 0.995264 18.7507 0.773238 19.0493C0.67371 19.1871 0.620117 19.3632 0.620117 19.5546C0.627773 20.2513 1.19432 21.239 2.2432 22.196C3.36099 23.2142 4.33331 23.9109 5.09126 24.3779C5.15251 24.4162 5.22141 24.4622 5.29797 24.5004C5.35157 24.5311 5.40516 24.5617 5.45875 24.5923C5.78031 24.7761 6.15545 24.9598 6.36217 25.0517C6.43873 25.0823 6.49232 25.1053 6.51529 25.1129C7.11246 25.2813 7.99291 25.266 8.00056 25.2278C8.00056 25.2124 8.00822 25.1589 8.00822 25.0899C8.00822 24.9521 8.00056 24.7454 7.9776 24.5311C7.9776 24.4928 7.9776 24.4545 7.96994 24.4162ZM16.4911 18.8196L16.4605 19.2101L16.3686 19.2024C15.7255 19.1565 14.9216 19.1259 14.2938 19.1106C14.1637 19.1029 14.0489 19.1029 13.9417 19.1029C13.9034 19.1029 13.8728 19.1029 13.8345 19.1029C13.7426 19.1029 13.6661 19.0953 13.5895 19.0953H13.5053V18.345H13.5895C13.6048 18.345 13.6125 18.345 13.6201 18.345C13.689 18.345 13.7503 18.345 13.8192 18.345C13.9646 18.345 14.1178 18.345 14.2785 18.3526C15.0518 18.3679 15.9322 18.4062 16.4222 18.4521L16.5065 18.4598L16.4911 18.8196ZM13.2067 17.7019C12.977 17.7019 12.7933 17.5181 12.7933 17.2884C12.7933 17.0587 12.977 16.875 13.2067 16.875C13.4364 16.875 13.6201 17.0587 13.6201 17.2884C13.6278 17.5181 13.4364 17.7019 13.2067 17.7019ZM12.8622 15.4204C12.8851 15.3744 12.9234 15.3285 12.9847 15.2749C13.0383 15.2213 13.0995 15.1677 13.1378 15.1447C13.1531 15.1371 13.1684 15.1294 13.1837 15.1218C13.2067 15.1141 13.2297 15.1065 13.2526 15.1065C13.3062 15.1065 13.3522 15.1294 13.3751 15.1447C13.3828 15.1524 13.3904 15.16 13.4057 15.1677C13.4823 15.2289 13.6201 15.3897 13.6431 15.4204C13.6737 15.4663 13.6661 15.5199 13.6737 15.5275C13.6737 15.5735 13.6661 15.6194 13.6507 15.6653C13.5895 15.8261 13.444 15.941 13.2603 15.941C13.1378 15.941 13.0306 15.8874 12.954 15.8108C12.8851 15.7342 12.8392 15.6347 12.8392 15.5275C12.8392 15.4969 12.8469 15.4586 12.8622 15.4204ZM14.2479 17.5411C14.2479 17.5411 14.2709 17.0741 14.2862 16.5917C14.2862 16.4845 14.2938 16.385 14.2938 16.2931C14.2938 16.2395 14.2938 16.186 14.2938 16.1324V16.1094C14.6231 16.0252 15.3045 15.6577 15.6413 15.2902C15.7255 15.206 15.8174 15.1065 15.9169 15.0146V15.1065C15.9169 15.2366 15.9093 15.405 15.9093 15.6041C15.9093 15.6347 15.9093 15.6653 15.9093 15.7036C15.9093 15.8032 15.9093 15.9027 15.9093 16.0099C15.9093 16.1247 15.9093 16.2319 15.9093 16.3391C15.9093 16.4156 15.9093 16.4922 15.9093 16.5688C15.9093 17.1123 15.8863 17.587 15.8863 17.5947L15.8787 17.6712L14.2403 17.6253L14.2479 17.5411ZM17.5783 14.8461C17.1725 14.6701 16.606 14.5093 16.3533 14.448C16.3457 14.448 16.3457 14.448 16.338 14.4404H16.3304C15.7562 14.3026 15.649 14.203 15.3734 13.782C15.3657 13.7666 15.3504 13.7513 15.3427 13.7284C15.2279 13.5446 15.1513 13.3992 15.1054 13.2767C15.0518 13.1388 15.0288 13.0393 15.0288 12.9857C15.0365 12.8403 15.1284 12.8479 15.1284 12.8479C15.1284 12.8479 15.136 12.8403 15.1666 12.8479C15.0671 12.6871 15.0824 12.5723 15.136 12.5264C15.2509 12.4345 15.5571 12.4575 15.8787 12.4575C15.8633 12.4575 15.848 12.4575 15.8404 12.4575C15.8174 12.4575 15.7944 12.4575 15.7715 12.4498C15.2662 12.4115 14.1407 12.3196 13.444 12.3196C13.1378 12.3196 12.9081 12.335 12.8622 12.3809C12.7933 12.4498 12.8239 12.5417 12.9004 12.6948C13.0459 12.9704 13.3751 13.3302 13.3751 13.5063C13.3751 13.7666 13.2986 13.9887 13.2603 14.2873C13.2526 14.3332 13.222 14.3638 13.1837 14.3638C13.1761 14.3638 13.1761 14.3638 13.1684 14.3638C12.7856 14.1801 12.3033 13.8968 12.0812 13.6977C11.7061 13.3685 11.775 13.1771 11.7291 13.1006C11.5147 12.7331 10.7108 13.958 10.6113 14.1571C10.6113 14.1571 10.6113 14.1648 10.6036 14.1648C10.4888 14.3026 10.3357 14.3944 9.99114 14.448C9.63896 14.5016 9.20257 14.5858 8.85039 14.6624H8.85804C8.81211 14.6701 8.77383 14.6777 8.73555 14.693L8.69727 14.7007L8.68195 14.739C8.65899 14.7926 8.64367 14.8615 8.62836 14.9457C8.58243 15.1677 8.54414 15.9792 8.54414 16.9669C8.54414 17.1583 8.54414 17.3497 8.5518 17.5487C8.55946 17.855 8.56711 18.1689 8.58243 18.4828C8.59774 18.7354 8.61305 18.9804 8.62836 19.2178C8.75851 20.7566 8.85804 21.9663 8.95757 23.0611C8.96523 23.107 8.96523 23.153 8.97288 23.1912C8.99585 23.4362 9.01882 23.6812 9.04179 23.9186C9.0571 24.0411 9.06476 24.1559 9.08007 24.2784C9.12601 24.6995 9.15663 25.1971 9.18725 25.6871C9.21788 26.2996 9.24085 26.9197 9.2485 27.4021H9.36334H9.67724H9.89927H10.7644C10.7644 27.226 10.7567 27.0269 10.7491 26.8126C10.7338 26.0852 10.7032 25.1971 10.6496 24.5004C10.6189 24.0334 10.5883 23.4975 10.5577 22.9309C10.5041 21.8208 10.4658 20.5423 10.4275 19.2101C10.4199 18.9881 10.4199 18.7584 10.4199 18.5134C10.4199 17.2884 10.4888 15.8261 10.5577 15.0835L10.573 14.9304L10.6955 15.0375C10.8027 15.1218 10.9099 15.2136 11.0171 15.2979C11.0477 15.3208 11.0783 15.3514 11.1089 15.3744C11.2467 15.4816 11.3845 15.5888 11.507 15.6883C11.6142 15.7649 11.7061 15.8414 11.7903 15.9027C11.8898 15.9716 11.9817 16.0328 12.043 16.0635L12.0889 16.0864V16.1324C12.0659 16.8597 12.0506 17.809 12.0506 18.7201V18.7278C12.0506 20.4274 12.1042 21.6677 12.1502 23.5664C12.1578 23.7042 12.1578 23.8497 12.1578 23.9951C12.1808 24.9598 12.2037 26.3226 12.2191 27.3715C12.2191 27.3791 12.2191 27.3944 12.2191 27.4021H12.4181H13.6967H13.8039C13.8039 26.6365 13.8115 25.5493 13.8268 24.6306C13.8268 24.5157 13.8345 24.4086 13.8345 24.3014C13.8575 23.0994 13.9034 22.0505 13.9493 21.4763L13.957 21.3614L14.8374 21.7596L14.9293 21.7213L14.9676 21.706L15.5494 21.461L15.5418 21.5911C15.5418 21.6677 15.5341 21.8055 15.5265 21.9816C15.5035 22.4103 15.4652 23.0994 15.4116 23.8573C15.404 24.0104 15.3887 24.1942 15.381 24.4162C15.3427 25.2507 15.3045 26.4757 15.2815 27.4097H16.1849H16.5983H16.7821C16.7821 27.4097 16.8204 26.6977 16.8586 26.1465C16.9735 24.4468 17.0883 23.3597 17.2721 21.6294C17.3333 21.0782 17.3946 20.4733 17.4711 19.7537C17.5553 18.9728 17.6089 18.3067 17.6472 17.7478C17.6549 17.6406 17.6625 17.5411 17.6625 17.4339C17.7697 15.428 17.6013 14.9227 17.5783 14.8615C17.5783 14.8461 17.5783 14.8461 17.5783 14.8461ZM19.1325 17.6483L19.1248 17.7554C19.1095 18.0387 19.0865 18.3067 19.0712 18.5517C19.0712 18.5593 19.0712 18.5593 19.0712 18.5593L19.0636 18.6129L19.1172 18.6359C19.1172 18.6359 19.1248 18.6359 19.1325 18.6435C19.5229 18.835 20.0206 19.1259 20.434 19.4015L20.5029 19.4474L20.9776 18.6435L20.9163 18.5976C20.5029 18.299 19.9057 17.9315 19.2397 17.6789L19.1325 17.6483ZM24.4458 20.6724C24.1319 20.1901 23.1519 19.3938 22.5854 18.9421L22.4935 18.8656L22.4322 18.9651L21.7662 20.037L21.8351 20.0982C22.2332 20.4427 22.7768 20.9021 22.8151 20.948C22.9299 21.0629 22.9605 21.1624 22.9605 21.2543C22.9605 21.3691 22.8916 21.4916 22.8074 21.5911C21.9882 22.5405 21.2226 23.2831 20.5642 23.8114C20.3575 23.9798 20.0512 24.2018 19.7909 24.3626C19.7373 24.3932 19.6837 24.4239 19.6378 24.4545C19.6148 24.4622 19.5918 24.4775 19.5765 24.4851C19.4158 24.5617 19.3392 24.6153 19.1478 24.5846C18.9564 24.554 18.6042 24.4392 18.4817 24.4009C18.3133 24.3473 18.2291 24.3167 18.1984 24.3473C18.1755 24.3703 18.1449 24.554 18.1142 24.7914C18.1066 24.8526 18.0989 24.9139 18.0913 24.9751C18.0836 25.067 18.0759 25.1665 18.0683 25.2584C18.0606 25.4728 18.0606 25.6412 18.0683 25.6718C18.0759 25.7101 18.7267 25.7024 19.2856 25.5876C19.3545 25.5723 19.4311 25.557 19.5 25.534C19.6072 25.5034 20.3651 25.0746 20.8781 24.7607C20.901 24.7454 20.924 24.7301 20.947 24.7148C22.3098 23.8956 23.6496 22.8544 24.0936 22.3031C24.1931 22.173 24.5989 21.7289 24.6066 21.193C24.6066 21.0246 24.5606 20.8408 24.4458 20.6724ZM19.1401 16.7525V16.8061L19.1861 16.8291C19.8751 17.097 20.656 17.61 21.2379 18.0311L21.3068 18.0847L21.3527 18.0081L21.8351 17.1889L21.7815 17.143C21.1307 16.5994 20.0589 15.8185 19.1325 15.5122L19.01 15.4739L19.0253 15.5964C19.0789 15.9333 19.1248 16.3467 19.1401 16.7525ZM11.5377 11.9522C11.6295 12.1589 11.6984 12.3043 11.7291 12.335C11.8056 12.4192 11.9281 12.3426 12.0353 12.2048C12.1042 12.1129 12.1425 11.9675 12.1425 11.9062C12.1502 11.799 12.1425 11.7531 12.1425 11.4622C12.1425 11.2555 12.1425 11.0258 12.1042 10.8573C12.0812 10.7425 11.9128 10.5588 11.8822 10.5128C11.752 10.3444 11.5759 10.0994 11.5683 9.73956C11.5683 9.68596 11.5683 9.63237 11.5759 9.57878C11.6372 9.1577 12.1348 9.01223 12.487 9.43332C12.8315 9.84674 13.0842 9.96158 13.222 9.73956C13.3598 9.51753 13.5971 8.77489 13.8192 8.58349C13.957 8.461 14.3551 8.30022 14.9063 8.216C15.1743 8.17772 15.2891 8.13944 15.358 8.08585C15.4652 8.00929 15.4652 7.87148 15.4652 7.67242C15.4652 7.48102 15.5341 7.19775 15.5724 7.08291C15.6413 6.89916 15.6566 6.81494 15.6643 6.66948C15.6796 6.51636 15.6413 6.32496 15.5341 6.21012C15.3887 6.04168 14.0871 6.04934 13.5359 6.03403C12.977 6.02637 11.8822 5.91919 10.8486 7.05994C10.6649 7.259 10.5347 7.47336 10.4582 7.68773C10.0294 8.6524 10.3586 9.663 10.5271 10.0228C10.6802 10.3674 11.2697 11.4851 11.5377 11.9522ZM4.71611 17.3726C4.75439 17.3497 4.80033 17.3191 4.83861 17.2961C5.44344 16.9209 6.2167 16.4922 6.88278 16.2089C6.93637 16.186 6.99762 16.163 7.05121 16.14L7.09715 16.1247L7.1048 16.0711C7.13543 15.7419 7.17371 15.4127 7.21199 15.1294C7.21965 15.0911 7.21965 15.0529 7.2273 15.0146L7.25027 14.8844L7.12012 14.938C6.04827 15.2825 4.99173 15.918 4.31034 16.3927C4.25675 16.4309 4.21081 16.4616 4.16488 16.4922L4.10363 16.5381L4.63955 17.4186L4.71611 17.3726ZM7.06652 16.9209L6.95934 16.9669C6.87512 16.9975 6.79091 17.0358 6.70669 17.0741C6.10952 17.342 5.55828 17.6865 5.19079 17.9545C5.16016 17.9775 5.12954 18.0004 5.09892 18.0234L5.03767 18.0693L5.52 18.8579L5.5889 18.812C5.61187 18.7967 5.63484 18.7814 5.65781 18.766C6.00999 18.5364 6.43873 18.2837 6.81387 18.0923C6.89809 18.0464 6.98231 18.0081 7.05887 17.9698L7.11246 17.9468L7.1048 17.8933C7.08949 17.6253 7.07418 17.3344 7.06652 17.0434V16.9209Z" fill="#0E1111"/>
</g>
</g>
<defs>
<clipPath id="clip0">
<rect width="161.972" height="33" fill="white"/>
</clipPath>
<clipPath id="clip1">
<rect y="5.59766" width="26" height="21.8045" fill="white"/>
</clipPath>
</defs>
</svg>
