<svg width="1240" height="1240" viewBox="0 0 1240 1240" fill="none" xmlns="http://www.w3.org/2000/svg">
<path d="M619.841 1239.14C961.879 1239.14 1239.15 961.862 1239.15 619.824C1239.15 277.786 961.879 0.509995 619.841 0.509995C277.803 0.509995 0.526855 277.786 0.526855 619.824C0.526855 961.862 277.803 1239.14 619.841 1239.14Z" fill="#B4F67F"/>
<path d="M537.463 376.683L480.351 337.947L681.566 222.032L743.592 257.916L537.463 376.683Z" fill="#B4F67F"/>
<path d="M747.334 519.02L747.377 470.569L809.465 434.837L809.354 561.082L747.334 519.02Z" fill="#B4F67F"/>
<path d="M594.573 415.416L805.617 293.798L867.643 329.681L651.656 454.129L594.573 415.416Z" fill="#B4F67F"/>
<path d="M933.395 645.208L871.375 603.149L872.001 398.783L929.669 365.565L933.638 367.861L933.395 645.208Z" fill="#B4F67F"/>
<path d="M306.278 595.502L368.306 637.571L368.129 840.628L310.04 874.098L306.044 871.787L306.278 595.502Z" fill="#B4F67F"/>
<path d="M492.347 721.697L492.306 769.08L430.213 804.817L430.341 679.643L492.347 721.697Z" fill="#B4F67F"/>
<path d="M644.296 824.748L434.09 945.865L372.064 909.982L587.198 786.026L644.296 824.748Z" fill="#B4F67F"/>
<path d="M701.391 863.473L758.629 902.293L558.142 1017.63L496.116 981.747L701.391 863.473Z" fill="#B4F67F"/>
<path d="M935.04 871.274L875.228 905.737L244.733 478.081L244.798 402.854L935.04 871.274Z" fill="#B4F67F"/>
<path d="M364.125 334.1L994.948 761.938L994.883 836.793L994.817 836.831L304.348 368.546L364.125 334.1Z" fill="#B4F67F"/>
<path d="M933.638 367.861L933.395 645.209L871.375 603.149L872 398.783L929.667 365.565L867.642 329.681L651.656 454.129L594.573 415.415L805.617 293.8L743.591 257.917L537.463 376.683L480.35 337.948L681.566 222.032L620.221 186.543L364.125 334.1L994.949 761.939L995.264 403.513L933.638 367.861ZM747.376 470.568L809.465 434.837L809.354 561.083L747.334 519.02L747.376 470.568Z" fill="#1D1D1B"/>
<path d="M244.733 478.082L244.418 836.135L306.044 871.787L306.277 595.502L368.306 637.571L368.128 840.629L310.038 874.099L372.065 909.982L587.2 786.026L644.3 824.748L434.091 945.865L496.116 981.748L701.39 863.473L758.629 902.293L558.142 1017.63L619.461 1053.1L875.228 905.737L244.733 478.082ZM492.305 769.082L430.213 804.818L430.341 679.645L492.347 721.7L492.305 769.082Z" fill="#1D1D1B"/>
<path d="M994.817 836.832L935.047 871.279L244.799 402.854L304.348 368.547L994.817 836.832Z" fill="#1D1D1B"/>
</svg>
